<?xml version="1.0" ?><svg style="enable-background:new 0 0 48 48;" version="1.1" viewBox="0 0 48 48" xml:space="preserve" xmlns="http://www.w3.org/2000/svg" xmlns:xlink="http://www.w3.org/1999/xlink"><style type="text/css">
	.st0{display:none;}
	.st1{fill:none;stroke:#303030;stroke-width:0.7;stroke-linecap:round;stroke-linejoin:round;stroke-miterlimit:10;}
	.st2{fill:#303030;}
</style><g class="st0" id="Padding__x26__Artboard"/><g id="Icons"><g><path class="st1" d="M16.21327,18.85592c0,0,3.08173-4.75592,9.29173-4.04592c0.34,0.03,0.65,0.03,0.83,0.34    c0.03,0.06,0.65,0.6,0.65,0.61h-1.73l-0.36,0.32l1.58,0.94c-0.35,0.09-1.25,0.38-1.25,0.38l-0.91585,1.09205l-0.01263,1.18723    L25.645,20.28c0.06,0,0.25-0.62,0.25-0.62l2.11322-1.25865c0.03737,0,0.19849,1.77585,0.19849,1.77585    c0.08,0.01,0.57829-0.2272,0.91829-0.4172c-0.11329,0.42187-0.91,2.05-0.91,2.05l-0.97,0.98l0.28,0.48l-3.97383,2.0679    c-0.16753,0.07005-0.31696,0.19065-0.36617,0.3721c-0.16,0.6,0.3,1.5,0.36,1.69c0.06,0.18-0.48,0.73-0.53,0.76    c-0.05,0.03-1.06-0.53-1.23-0.61c0,0-2.5951-2.40093-2.75009-4.9714l0.84937-2.95505L18.035,19.05    C18.035,19.05,16.54287,18.90393,16.21327,18.85592"/><path class="st1" d="M26.80291,27.27375c0,0,0.95792,0.09909,1.13959,0.09909c0.18167,0,0.7267-0.71018,0.7267-0.71018    s-0.24774-0.46244-0.39638-0.47896c-0.14864-0.01652-1.71765,0.21471-1.71765,0.21471L26.80291,27.27375z"/><circle class="st1" cx="24" cy="24" r="10.695"/></g><path class="st1" d="M25.15277,27.27234c0,0,1.22908,1.2227,1.3629,1.2955c0.13381,0.0728-0.12938,0.75191-0.12938,0.75191   l-0.84244,0.9892l-0.91808-2.00317C24.62578,28.30577,25.13822,27.40223,25.15277,27.27234z"/><path class="st1" d="M30.41711,23.11141l-0.15909,2.17421c0,0,1.4318,0.96042,1.69105,0.83669s-0.10606-4.40734-0.10606-4.40734   L30.41711,23.11141z"/><path class="st1" d="M28.50879,29.71157v-0.72229l2.99936-0.35503c0,0-1.15077,3.4156-3.66044,3.95426l-1.54253-0.80799   L28.50879,29.71157z"/></g></svg>